# xmcd
#
# Track frame offsets:
# 150
# 11768
# 26485
# 42691
# 59036
# 75481
# 94065
# 110261
# 145359
# 162956
# 174405
# 198973
# 216403
# 237867
# 253560
# 272615
# 288108
# 300691
# 319787
# 339300
#
# Disc length: 4751 seconds
#
# Revision: 0
# Processed by: cddbd v1.5.2PL0 Copyright (c) Steve Scherf et al.
# Submitted via: Audion 3.0.2 (http://www.panic.com/audion/)
#
DISCID=1b128d14
DTITLE=Chris Smither - Train Home
DYEAR=1900
DGENRE=
TTITLE0=99 Year Blues
TTITLE1=Down In The Flood
TTITLE2=Another Way to Find You
TTITLE3=Call Time
TTITLE4=Candy Man
TTITLE5=Confirmation
TTITLE6=Crocodile Man
TTITLE7=Desolation Row
TTITLE8=Duncan and Brady
TTITLE9=High Heel Sneakers
TTITLE10=Killin' the Blues
TTITLE11=Kind Woman
TTITLE12=Link of Chain
TTITLE13=Lola
TTITLE14=Outside In
TTITLE15=Rosalie
TTITLE16=Thanks to You
TTITLE17=Train Home
TTITLE18=Up On the Lowdown
TTITLE19=Winsome Smile
EXTD=
EXTT0=
EXTT1=
EXTT2=
EXTT3=
EXTT4=
EXTT5=
EXTT6=
EXTT7=
EXTT8=
EXTT9=
EXTT10=
EXTT11=
EXTT12=
EXTT13=
EXTT14=
EXTT15=
EXTT16=
EXTT17=
EXTT18=
EXTT19=
PLAYORDER=
